# xmcd
#
# Track frame offsets: 
#        150
#        22558
#        44086
#        88671
#        110743
#        137984
#        153231
#        180287
#        204808
#        249526
#        267280
#        289960
#        316617
#
# Disc length: 4562 seconds
#
# Revision: 0
# Processed by: cddbd v1.5.2PL0 Copyright (c) Steve Scherf et al.
# Submitted via: ExactAudioCopy v1.3
#
DISCID=aa11d00d
DTITLE=Bernard Allison - Songs from the Road
DYEAR=2020
DGENRE=Blues
TTITLE0=Night Train (Live)
TTITLE1=Stay with Me Tonight (Live)
TTITLE2=You're Gonna Need Me (Live)
TTITLE3=I Can't Get You out of My Mind (Live)
TTITLE4=Call Me Momma (Live)
TTITLE5=Feels Kinda Funny (Live)
TTITLE6=Cruisin for a Bluesin (Live)
TTITLE7=Same Ole Feeling (Live)
TTITLE8=Let's Try It Again (Live)
TTITLE9=Meet Me Half Way (Live)
TTITLE10=Backdoor Man (Live)
TTITLE11=Something's Wrong (Live)
TTITLE12=Slide Master (Live)
EXTD=
EXTT0=
EXTT1=
EXTT2=
EXTT3=
EXTT4=
EXTT5=
EXTT6=
EXTT7=
EXTT8=
EXTT9=
EXTT10=
EXTT11=
EXTT12=
PLAYORDER=
